<?xml version="1.0" encoding="UTF-8"?>
<svg class="fill-red-500" width="800px" height="800px" viewBox="0 0 24 24"
  xmlns="http://www.w3.org/2000/svg">
  <path
    d="m3 6.386c0-0.48445 0.34538-0.87718 0.77143-0.87718l2.6642-4.7e-4c0.52935-0.01526 0.99635-0.39799 1.1765-0.9642 0.00474-0.01489 0.01018-0.03325 0.02971-0.09988l0.1148-0.39168c0.07025-0.24015 0.13145-0.44938 0.2171-0.63639 0.33834-0.73881 0.96433-1.2518 1.6877-1.3832 0.1831-0.03325 0.37703-0.03311 0.59963-0.03295h3.478c0.2226-1.6e-4 0.4165-3e-4 0.5996 0.03295 0.7234 0.13135 1.3494 0.64439 1.6877 1.3832 0.0857 0.18701 0.1469 0.39624 0.2171 0.63639l0.1148 0.39168c0.0195 0.06663 0.025 0.08499 0.0297 0.09988 0.1802 0.56621 0.7398 0.94941 1.2691 0.96467h2.5715c0.426 0 0.7714 0.39273 0.7714 0.87718 0 0.48446-0.3454 0.87719-0.7714 0.87719h-16.457c-0.42605 0-0.77143-0.39273-0.77143-0.87719z"
    fill="#f97316" />
  <path
    d="m11.596 22h0.8088c2.7827 0 4.1741 0 5.0787-0.8859 0.9047-0.8859 0.9972-2.3391 1.1823-5.2456l0.2667-4.1879c0.1005-1.577 0.1507-2.3655-0.3032-2.8651-0.4538-0.49966-1.2202-0.49966-2.7529-0.49966h-7.752c-1.5328 0-2.2992 0-2.753 0.49966s-0.40361 1.2881-0.30317 2.8651l0.26671 4.1879c0.18511 2.9065 0.27766 4.3597 1.1823 5.2456s2.296 0.8859 5.0787 0.8859zm-1.3493-9.8115c-0.0412-0.4338-0.40877-0.7504-0.82093-0.707s-0.71286 0.4303-0.67165 0.8641l0.5 5.2632c0.04122 0.4338 0.40875 0.7504 0.82088 0.707 0.4122-0.0434 0.7129-0.4303 0.6717-0.8641l-0.5-5.2632zm4.3283-0.707c0.4122 0.0434 0.7129 0.4303 0.6717 0.8641l-0.5 5.2632c-0.0412 0.4338-0.4088 0.7504-0.8209 0.707-0.4122-0.0434-0.7129-0.4303-0.6717-0.8641l0.5-5.2632c0.0412-0.4338 0.4088-0.7504 0.8209-0.707z"
    clip-rule="evenodd" fill="#f97316" fill-rule="evenodd" />
</svg>